# xmcd
#
# Track frame offsets: 
#        150
#        11715
#        24380
#        37823
#        51710
#        65205
#        77255
#        92023
#        103493
#        118425
#        132955
#        145643
#        157578
#        170193
#        185130
#        199175
#        213218
#        226288
#        236980
#        251105
#        264098
#        276893
#        291023
#        304273
#        318660
#
# Disc length: 4387 seconds
#
# Revision: 3
# Processed by: cddbd v1.5.2PL0 Copyright (c) Steve Scherf et al.
# Submitted via: ExactAudioCopyFreeDBPlugin 1.0
#
DISCID=77112119
DTITLE=Various Artist - Chess Blues [CD2: 1952-1954)
DYEAR=1992
DGENRE=Blues
TTITLE0=John Lee Hooker - Walkin' The Boogie (Alternate)
TTITLE1=Little Walter - Juke
TTITLE2=Memphis Minnie - Conjur Man
TTITLE3=Muddy Waters - Who's Gonna Be Your Sweet Man When I'm Gone
TTITLE4=Memphis Minnie - Broken Heart (Alternate)
TTITLE5=Willie Nix - Truckin' Little Woman
TTITLE6=Rocky Fuller - Funeral Hearse At My Door
TTITLE7=Eddie Boyd - Hard Time Gettin' Started
TTITLE8=Little Walter - Don't Need No Horse
TTITLE9=Gus Jenkins - Eight Ball
TTITLE10=Little Walter - Fast Boogie
TTITLE11=Willie Mabon - I'm Mad
TTITLE12=John Brim - Ice Cream Man
TTITLE13=Elmore James - Whose Muddy Shoes
TTITLE14=Willie Mabon - Got To Have It
TTITLE15=Henry Gray - I Declare That Ain't Right
TTITLE16=Alberta Adams - Remember
TTITLE17=Henry Gray and Morris Pejoe - Untitled Instrumental
TTITLE18=Little Walter - Blues With A Feeling
TTITLE19=Muddy Waters - Hoochie Coochie Man
TTITLE20=Howlin' Wolf - Forty Four
TTITLE21=Little Walter - Got To Find My Baby (Alternate)
TTITLE22=Howlin' Wolf - Evil
TTITLE23=Lowell Fulson - Reconsider Baby
TTITLE24=J. B. Lenoir - Mama Talk To Your Daughter
EXTD=
EXTT0=
EXTT1=
EXTT2=
EXTT3=
EXTT4=
EXTT5=
EXTT6=
EXTT7=
EXTT8=
EXTT9=
EXTT10=
EXTT11=
EXTT12=
EXTT13=
EXTT14=
EXTT15=
EXTT16=
EXTT17=
EXTT18=
EXTT19=
EXTT20=
EXTT21=
EXTT22=
EXTT23=
EXTT24=
PLAYORDER=
